# File generated by FabConvert.com - Free Image and 3D model conversion tools

o obj1
v 1.49414003 31.99220085 0
v 6.43799019 31.99220085 0
v 14.15040016 19.73139954 0
v 6.24023008 0 0
v 1.25243998 0 0
v 11.62349987 16.12789917 0
v 27.02639961 0 0
v 22.01659966 0 0
v 14.15040016 12.48050022 0
v 21.81879997 31.99220085 0
v 26.78470039 31.99220085 0
v 16.67720032 16.12789917 0
v 14.15040016 19.73139954 7
v 6.43799019 31.99220085 7
v 1.49414003 31.99220085 7
v 11.62349987 16.12789917 7
v 1.25243998 0 7
v 6.24023008 0 7
v 14.15040016 12.48050022 7
v 22.01659966 0 7
v 27.02639961 0 7
v 16.67720032 16.12789917 7
v 26.78470039 31.99220085 7
v 21.81879997 31.99220085 7
vn -0 -0 -1
vn 0 0 1
vn 0 1 0
vn -0.84284 -0.53816 0
vn -0.8411 0.54087 0
vn 0 -1 0
vn 0.84464 -0.53533 0
vn -0.84598 -0.53321 0
vn 0.84162 0.54007 0
vn 0.84337 -0.53733 0
vn -0.84783 0.53027 0
vn 0.84646 0.53245 0
f 1//1 2//1 3//1
f 4//1 5//1 6//1
f 7//1 8//1 9//1
f 10//1 11//1 12//1
f 6//1 1//1 3//1
f 9//1 4//1 6//1
f 12//1 7//1 9//1
f 3//1 10//1 12//1
f 9//1 6//1 3//1
f 3//1 12//1 9//1
f 13//2 14//2 15//2
f 16//2 17//2 18//2
f 19//2 20//2 21//2
f 22//2 23//2 24//2
f 13//2 15//2 16//2
f 16//2 18//2 19//2
f 19//2 21//2 22//2
f 22//2 24//2 13//2
f 13//2 16//2 19//2
f 19//2 22//2 13//2
f 2//3 1//3 14//3
f 1//3 15//3 14//3
f 1//4 6//4 15//4
f 6//4 16//4 15//4
f 6//5 5//5 16//5
f 5//5 17//5 16//5
f 5//6 4//6 17//6
f 4//6 18//6 17//6
f 4//7 9//7 18//7
f 9//7 19//7 18//7
f 9//8 8//8 19//8
f 8//8 20//8 19//8
f 8//6 7//6 20//6
f 7//6 21//6 20//6
f 7//9 12//9 21//9
f 12//9 22//9 21//9
f 12//10 11//10 22//10
f 11//10 23//10 22//10
f 11//3 10//3 23//3
f 10//3 24//3 23//3
f 10//11 3//11 24//11
f 3//11 13//11 24//11
f 3//12 2//12 13//12
f 2//12 14//12 13//12
# Vertices: 24, normals: 12, texture coordinates: 0, faces: 44

