<svg width="2110" height="268" viewBox="0 0 2110 268" fill="none" xmlns="http://www.w3.org/2000/svg">
<mask id="path-1-outside-1_28_82" maskUnits="userSpaceOnUse" x="0" y="0" width="2110" height="268" fill="black">
<rect fill="white" width="2110" height="268"/>
<path d="M1 263.335V4.53824H55.6443V111.317H166.573V4.53824H221.091V263.335H166.573V156.43H55.6443V263.335H1ZM266.145 263.335V4.53824H440.299V49.6508H320.789V111.317H431.339V156.43H320.789V218.223H440.804V263.335H266.145ZM643.386 4.53824H698.03V172.605C698.03 191.475 693.529 207.987 684.526 222.14C675.608 236.293 663.115 247.329 647.045 255.248C630.976 263.083 612.256 267 590.887 267C569.433 267 550.671 263.083 534.602 255.248C518.532 247.329 506.039 236.293 497.121 222.14C488.203 207.987 483.744 191.475 483.744 172.605V4.53824H538.388V167.929C538.388 177.786 540.533 186.547 544.824 194.213C549.199 201.879 555.341 207.903 563.249 212.284C571.158 216.664 580.37 218.855 590.887 218.855C601.487 218.855 610.7 216.664 618.524 212.284C626.433 207.903 632.532 201.879 636.823 194.213C641.198 186.547 643.386 177.786 643.386 167.929V4.53824ZM742.988 263.335V4.53824H844.957C864.476 4.53824 881.134 8.03436 894.932 15.0266C908.814 21.9346 919.373 31.749 926.608 44.4698C933.928 57.1064 937.587 71.9754 937.587 89.077C937.587 106.263 933.886 121.048 926.482 133.431C919.078 145.731 908.351 155.166 894.301 161.737C880.335 168.308 863.424 171.594 843.569 171.594H775.295V127.619H834.735C845.168 127.619 853.833 126.186 860.732 123.322C867.631 120.458 872.763 116.161 876.128 110.433C879.578 104.704 881.303 97.5856 881.303 89.077C881.303 80.4841 879.578 73.2391 876.128 67.342C872.763 61.445 867.589 56.98 860.606 53.9473C853.707 50.8303 844.999 49.2717 834.483 49.2717H797.633V263.335H742.988ZM882.565 145.562L946.8 263.335H886.477L823.63 145.562H882.565ZM1030.85 4.53824V263.335H976.204V4.53824H1030.85ZM1216.01 78.9677C1215 68.7742 1210.67 60.8553 1203.02 55.2109C1195.36 49.5666 1184.97 46.7444 1171.84 46.7444C1162.93 46.7444 1155.4 48.0081 1149.26 50.5354C1143.11 52.9785 1138.4 56.3903 1135.12 60.771C1131.92 65.1517 1130.33 70.1221 1130.33 75.6822C1130.16 80.3156 1131.12 84.3593 1133.23 87.8133C1135.42 91.2673 1138.4 94.258 1142.19 96.7853C1145.97 99.2283 1150.35 101.377 1155.31 103.23C1160.28 104.999 1165.58 106.515 1171.21 107.779L1194.43 113.339C1205.71 115.867 1216.06 119.236 1225.48 123.448C1234.9 127.661 1243.06 132.842 1249.96 138.991C1256.86 145.141 1262.2 152.386 1265.99 160.726C1269.86 169.067 1271.84 178.628 1271.92 189.411C1271.84 205.249 1267.8 218.981 1259.81 230.607C1251.9 242.148 1240.46 251.12 1225.48 257.523C1210.59 263.841 1192.63 267 1171.59 267C1150.73 267 1132.55 263.799 1117.07 257.396C1101.68 250.994 1089.65 241.516 1080.98 228.964C1072.4 216.327 1067.9 200.7 1067.48 182.082H1120.36C1120.94 190.759 1123.43 198.004 1127.8 203.817C1132.26 209.546 1138.19 213.884 1145.6 216.833C1153.08 219.697 1161.54 221.129 1170.96 221.129C1180.22 221.129 1188.25 219.781 1195.07 217.086C1201.96 214.39 1207.31 210.641 1211.09 205.839C1214.88 201.037 1216.77 195.519 1216.77 189.285C1216.77 183.472 1215.05 178.586 1211.6 174.627C1208.23 170.667 1203.27 167.297 1196.71 164.517C1190.23 161.737 1182.28 159.21 1172.85 156.935L1144.71 149.859C1122.92 144.552 1105.72 136.254 1093.1 124.965C1080.48 113.676 1074.21 98.4701 1074.29 79.3468C1074.21 63.6774 1078.37 49.9878 1086.79 38.2779C1095.28 26.568 1106.94 17.4276 1121.74 10.8565C1136.55 4.28551 1153.38 1 1172.22 1C1191.41 1 1208.15 4.28551 1222.45 10.8565C1236.84 17.4276 1248.03 26.568 1256.02 38.2779C1264.01 49.9878 1268.13 63.5511 1268.39 78.9677H1216.01ZM1298.83 49.6508V4.53824H1511.1V49.6508H1431.97V263.335H1377.96V49.6508H1298.83ZM1600.7 4.53824V263.335H1546.06V4.53824H1600.7ZM1873.7 95.1425H1818.43C1817.42 87.9818 1815.36 81.6214 1812.24 76.0613C1809.13 70.4169 1805.13 65.615 1800.25 61.6556C1795.37 57.6961 1789.74 54.6633 1783.34 52.5572C1777.03 50.4512 1770.18 49.3981 1762.77 49.3981C1749.4 49.3981 1737.74 52.7257 1727.82 59.381C1717.89 65.952 1710.19 75.5558 1704.72 88.1924C1699.25 100.745 1696.52 115.993 1696.52 133.937C1696.52 152.386 1699.25 167.887 1704.72 180.439C1710.27 192.992 1718.01 202.469 1727.94 208.872C1737.87 215.274 1749.35 218.476 1762.39 218.476C1769.71 218.476 1776.49 217.507 1782.71 215.569C1789.02 213.632 1794.62 210.809 1799.5 207.103C1804.38 203.312 1808.41 198.72 1811.61 193.329C1814.89 187.937 1817.16 181.787 1818.43 174.879L1873.7 175.132C1872.27 187.01 1868.7 198.468 1862.97 209.504C1857.34 220.455 1849.72 230.27 1840.13 238.947C1830.63 247.54 1819.27 254.363 1806.06 259.418C1792.93 264.388 1778.08 266.874 1761.51 266.874C1738.46 266.874 1717.85 261.651 1699.67 251.204C1681.58 240.758 1667.28 225.636 1656.77 205.839C1646.33 186.042 1641.12 162.074 1641.12 133.937C1641.12 105.715 1646.42 81.7056 1657.02 61.9083C1667.62 42.111 1682 27.0314 1700.18 16.6694C1718.35 6.22312 1738.79 1 1761.51 1C1776.49 1 1790.37 3.1061 1803.16 7.31829C1816.03 11.5305 1827.43 17.6803 1837.36 25.7677C1847.28 33.7709 1855.36 43.5853 1861.59 55.2109C1867.9 66.8366 1871.93 80.1471 1873.7 95.1425ZM2053.09 78.9677C2052.08 68.7742 2047.75 60.8553 2040.1 55.2109C2032.44 49.5666 2022.05 46.7444 2008.92 46.7444C2000.01 46.7444 1992.48 48.0081 1986.33 50.5354C1980.19 52.9785 1975.48 56.3903 1972.2 60.771C1969 65.1517 1967.4 70.1221 1967.4 75.6822C1967.24 80.3156 1968.2 84.3593 1970.31 87.8133C1972.49 91.2673 1975.48 94.258 1979.27 96.7853C1983.05 99.2283 1987.43 101.377 1992.39 103.23C1997.36 104.999 2002.66 106.515 2008.29 107.779L2031.51 113.339C2042.79 115.867 2053.14 119.236 2062.56 123.448C2071.98 127.661 2080.14 132.842 2087.04 138.991C2093.94 145.141 2099.28 152.386 2103.07 160.726C2106.94 169.067 2108.92 178.628 2109 189.411C2108.92 205.249 2104.88 218.981 2096.88 230.607C2088.98 242.148 2077.53 251.12 2062.56 257.523C2047.67 263.841 2029.7 267 2008.67 267C1987.81 267 1969.63 263.799 1954.15 257.396C1938.76 250.994 1926.73 241.516 1918.06 228.964C1909.48 216.327 1904.98 200.7 1904.56 182.082H1957.43C1958.02 190.759 1960.51 198.004 1964.88 203.817C1969.34 209.546 1975.27 213.884 1982.67 216.833C1990.16 219.697 1998.62 221.129 2008.04 221.129C2017.3 221.129 2025.33 219.781 2032.14 217.086C2039.04 214.39 2044.39 210.641 2048.17 205.839C2051.96 201.037 2053.85 195.519 2053.85 189.285C2053.85 183.472 2052.13 178.586 2048.68 174.627C2045.31 170.667 2040.35 167.297 2033.79 164.517C2027.31 161.737 2019.36 159.21 2009.93 156.935L1981.79 149.859C1960 144.552 1942.8 136.254 1930.18 124.965C1917.56 113.676 1911.29 98.4701 1911.37 79.3468C1911.29 63.6774 1915.45 49.9878 1923.87 38.2779C1932.36 26.568 1944.02 17.4276 1958.82 10.8565C1973.63 4.28551 1990.46 1 2009.3 1C2028.48 1 2045.23 4.28551 2059.53 10.8565C2073.92 17.4276 2085.11 26.568 2093.1 38.2779C2101.09 49.9878 2105.21 63.5511 2105.47 78.9677H2053.09Z"/>
</mask>
<path d="M1 263.335V4.53824H55.6443V111.317H166.573V4.53824H221.091V263.335H166.573V156.43H55.6443V263.335H1ZM266.145 263.335V4.53824H440.299V49.6508H320.789V111.317H431.339V156.43H320.789V218.223H440.804V263.335H266.145ZM643.386 4.53824H698.03V172.605C698.03 191.475 693.529 207.987 684.526 222.14C675.608 236.293 663.115 247.329 647.045 255.248C630.976 263.083 612.256 267 590.887 267C569.433 267 550.671 263.083 534.602 255.248C518.532 247.329 506.039 236.293 497.121 222.14C488.203 207.987 483.744 191.475 483.744 172.605V4.53824H538.388V167.929C538.388 177.786 540.533 186.547 544.824 194.213C549.199 201.879 555.341 207.903 563.249 212.284C571.158 216.664 580.37 218.855 590.887 218.855C601.487 218.855 610.7 216.664 618.524 212.284C626.433 207.903 632.532 201.879 636.823 194.213C641.198 186.547 643.386 177.786 643.386 167.929V4.53824ZM742.988 263.335V4.53824H844.957C864.476 4.53824 881.134 8.03436 894.932 15.0266C908.814 21.9346 919.373 31.749 926.608 44.4698C933.928 57.1064 937.587 71.9754 937.587 89.077C937.587 106.263 933.886 121.048 926.482 133.431C919.078 145.731 908.351 155.166 894.301 161.737C880.335 168.308 863.424 171.594 843.569 171.594H775.295V127.619H834.735C845.168 127.619 853.833 126.186 860.732 123.322C867.631 120.458 872.763 116.161 876.128 110.433C879.578 104.704 881.303 97.5856 881.303 89.077C881.303 80.4841 879.578 73.2391 876.128 67.342C872.763 61.445 867.589 56.98 860.606 53.9473C853.707 50.8303 844.999 49.2717 834.483 49.2717H797.633V263.335H742.988ZM882.565 145.562L946.8 263.335H886.477L823.63 145.562H882.565ZM1030.85 4.53824V263.335H976.204V4.53824H1030.85ZM1216.01 78.9677C1215 68.7742 1210.67 60.8553 1203.02 55.2109C1195.36 49.5666 1184.97 46.7444 1171.84 46.7444C1162.93 46.7444 1155.4 48.0081 1149.26 50.5354C1143.11 52.9785 1138.4 56.3903 1135.12 60.771C1131.92 65.1517 1130.33 70.1221 1130.33 75.6822C1130.16 80.3156 1131.12 84.3593 1133.23 87.8133C1135.42 91.2673 1138.4 94.258 1142.19 96.7853C1145.97 99.2283 1150.35 101.377 1155.31 103.23C1160.28 104.999 1165.58 106.515 1171.21 107.779L1194.43 113.339C1205.71 115.867 1216.06 119.236 1225.48 123.448C1234.9 127.661 1243.06 132.842 1249.96 138.991C1256.86 145.141 1262.2 152.386 1265.99 160.726C1269.86 169.067 1271.84 178.628 1271.92 189.411C1271.84 205.249 1267.8 218.981 1259.81 230.607C1251.9 242.148 1240.46 251.12 1225.48 257.523C1210.59 263.841 1192.63 267 1171.59 267C1150.73 267 1132.55 263.799 1117.07 257.396C1101.68 250.994 1089.65 241.516 1080.98 228.964C1072.4 216.327 1067.9 200.7 1067.48 182.082H1120.36C1120.94 190.759 1123.43 198.004 1127.8 203.817C1132.26 209.546 1138.19 213.884 1145.6 216.833C1153.08 219.697 1161.54 221.129 1170.96 221.129C1180.22 221.129 1188.25 219.781 1195.07 217.086C1201.96 214.39 1207.31 210.641 1211.09 205.839C1214.88 201.037 1216.77 195.519 1216.77 189.285C1216.77 183.472 1215.05 178.586 1211.6 174.627C1208.23 170.667 1203.27 167.297 1196.71 164.517C1190.23 161.737 1182.28 159.21 1172.85 156.935L1144.71 149.859C1122.92 144.552 1105.72 136.254 1093.1 124.965C1080.48 113.676 1074.21 98.4701 1074.29 79.3468C1074.21 63.6774 1078.37 49.9878 1086.79 38.2779C1095.28 26.568 1106.94 17.4276 1121.74 10.8565C1136.55 4.28551 1153.38 1 1172.22 1C1191.41 1 1208.15 4.28551 1222.45 10.8565C1236.84 17.4276 1248.03 26.568 1256.02 38.2779C1264.01 49.9878 1268.13 63.5511 1268.39 78.9677H1216.01ZM1298.83 49.6508V4.53824H1511.1V49.6508H1431.97V263.335H1377.96V49.6508H1298.83ZM1600.7 4.53824V263.335H1546.06V4.53824H1600.7ZM1873.7 95.1425H1818.43C1817.42 87.9818 1815.36 81.6214 1812.24 76.0613C1809.13 70.4169 1805.13 65.615 1800.25 61.6556C1795.37 57.6961 1789.74 54.6633 1783.34 52.5572C1777.03 50.4512 1770.18 49.3981 1762.77 49.3981C1749.4 49.3981 1737.74 52.7257 1727.82 59.381C1717.89 65.952 1710.19 75.5558 1704.72 88.1924C1699.25 100.745 1696.52 115.993 1696.52 133.937C1696.52 152.386 1699.25 167.887 1704.72 180.439C1710.27 192.992 1718.01 202.469 1727.94 208.872C1737.87 215.274 1749.35 218.476 1762.39 218.476C1769.71 218.476 1776.49 217.507 1782.71 215.569C1789.02 213.632 1794.62 210.809 1799.5 207.103C1804.38 203.312 1808.41 198.72 1811.61 193.329C1814.89 187.937 1817.16 181.787 1818.43 174.879L1873.7 175.132C1872.27 187.01 1868.7 198.468 1862.97 209.504C1857.34 220.455 1849.72 230.27 1840.13 238.947C1830.63 247.54 1819.27 254.363 1806.06 259.418C1792.93 264.388 1778.08 266.874 1761.51 266.874C1738.46 266.874 1717.85 261.651 1699.67 251.204C1681.58 240.758 1667.28 225.636 1656.77 205.839C1646.33 186.042 1641.12 162.074 1641.12 133.937C1641.12 105.715 1646.42 81.7056 1657.02 61.9083C1667.62 42.111 1682 27.0314 1700.18 16.6694C1718.35 6.22312 1738.79 1 1761.51 1C1776.49 1 1790.37 3.1061 1803.16 7.31829C1816.03 11.5305 1827.43 17.6803 1837.36 25.7677C1847.28 33.7709 1855.36 43.5853 1861.59 55.2109C1867.9 66.8366 1871.93 80.1471 1873.7 95.1425ZM2053.09 78.9677C2052.08 68.7742 2047.75 60.8553 2040.1 55.2109C2032.44 49.5666 2022.05 46.7444 2008.92 46.7444C2000.01 46.7444 1992.48 48.0081 1986.33 50.5354C1980.19 52.9785 1975.48 56.3903 1972.2 60.771C1969 65.1517 1967.4 70.1221 1967.4 75.6822C1967.24 80.3156 1968.2 84.3593 1970.31 87.8133C1972.49 91.2673 1975.48 94.258 1979.27 96.7853C1983.05 99.2283 1987.43 101.377 1992.39 103.23C1997.36 104.999 2002.66 106.515 2008.29 107.779L2031.51 113.339C2042.79 115.867 2053.14 119.236 2062.56 123.448C2071.98 127.661 2080.14 132.842 2087.04 138.991C2093.94 145.141 2099.28 152.386 2103.07 160.726C2106.94 169.067 2108.92 178.628 2109 189.411C2108.92 205.249 2104.88 218.981 2096.88 230.607C2088.98 242.148 2077.53 251.12 2062.56 257.523C2047.67 263.841 2029.7 267 2008.67 267C1987.81 267 1969.63 263.799 1954.15 257.396C1938.76 250.994 1926.73 241.516 1918.06 228.964C1909.48 216.327 1904.98 200.7 1904.56 182.082H1957.43C1958.02 190.759 1960.51 198.004 1964.88 203.817C1969.34 209.546 1975.27 213.884 1982.67 216.833C1990.16 219.697 1998.62 221.129 2008.04 221.129C2017.3 221.129 2025.33 219.781 2032.14 217.086C2039.04 214.39 2044.39 210.641 2048.17 205.839C2051.96 201.037 2053.85 195.519 2053.85 189.285C2053.85 183.472 2052.13 178.586 2048.68 174.627C2045.31 170.667 2040.35 167.297 2033.79 164.517C2027.31 161.737 2019.36 159.21 2009.93 156.935L1981.79 149.859C1960 144.552 1942.8 136.254 1930.18 124.965C1917.56 113.676 1911.29 98.4701 1911.37 79.3468C1911.29 63.6774 1915.45 49.9878 1923.87 38.2779C1932.36 26.568 1944.02 17.4276 1958.82 10.8565C1973.63 4.28551 1990.46 1 2009.3 1C2028.48 1 2045.23 4.28551 2059.53 10.8565C2073.92 17.4276 2085.11 26.568 2093.1 38.2779C2101.09 49.9878 2105.21 63.5511 2105.47 78.9677H2053.09Z" stroke="#404040" stroke-width="2" mask="url(#path-1-outside-1_28_82)"/>
</svg>
