# File generated by FabConvert.com - Free Image and 3D model conversion tools

o obj1
v 21.9946003 31.99220085 0
v 26.23539925 31.99220085 0
v 26.23539925 10.23929977 0
v 3.07616997 31.99220085 0
v 7.2509799 31.99220085 0
v 7.2509799 10.3270998 0
v 3.10485721 9.38246632 0
v 3.07616997 10.1953001 0
v 3.29040504 7.84560394 0
v 3.17626882 8.59923363 0
v 3.64685059 6.4271493 0
v 3.44726562 7.12157536 0
v 4.17419386 5.12710285 0
v 3.88915992 5.76232481 0
v 4.87243509 3.94546366 0
v 4.50195217 4.52148199 0
v 5.74157381 2.88223267 0
v 5.28564215 3.39904714 0
v 6.77505112 1.94229162 0
v 6.24023008 2.39502001 0
v 7.93349791 1.1549381 0
v 7.33947372 1.52893102 0
v 9.2103529 0.52505517 0
v 8.55712414 0.8203128 0
v 10.60561466 0.05264301 0
v 9.89318275 0.26916525 0
v 12.11928272 -0.26229843 0
v 11.34764767 -0.12451155 0
v 13.75135899 -0.41976917 0
v 12.92051983 -0.36071762 0
v 15.73239994 -0.39550799 0
v 14.61180019 -0.43945301 0
v 17.28788567 -0.20813008 0
v 16.52410507 -0.31936663 0
v 18.73167801 0.11962853 0
v 18.02374458 -0.06179836 0
v 20.06377411 0.58776784 0
v 19.41168785 0.33615062 0
v 21.28417778 1.19628787 0
v 20.68793869 0.87448025 0
v 22.39288521 1.94518864 0
v 21.85249329 1.55319059 0
v 23.38990021 2.83447003 0
v 22.90535545 2.37228179 0
v 24.25324631 3.83972073 0
v 23.84102821 3.32565093 0
v 24.96095467 4.93652678 0
v 24.6265564 4.37667942 0
v 25.51302528 6.12488747 0
v 25.25644493 5.51926279 0
v 25.90945625 7.40480328 0
v 25.73069572 6.75340128 0
v 26.15024757 8.77627373 0
v 26.04930687 8.07909393 0
v 26.21227837 9.49634266 0
v 21.9946003 10.30519962 0
v 7.26425505 9.75925255 0
v 7.30408049 9.21291828 0
v 21.98140144 9.73741722 0
v 7.37045622 8.68809891 0
v 21.94180489 9.1913023 0
v 21.87581253 8.66685486 0
v 7.46338224 8.18479347 0
v 21.78342247 8.16407585 0
v 7.58285856 7.70300198 0
v 7.72888517 7.2427249 0
v 21.6646347 7.68296385 0
v 7.9014616 6.80396223 0
v 21.51944923 7.2235198 0
v 8.1005888 6.3867135 0
v 21.34786797 6.78574371 0
v 8.32626629 5.99097872 0
v 21.14988899 6.36963558 0
v 8.57849407 5.61675835 0
v 20.92551231 5.97519493 0
v 8.85727215 5.26405191 0
v 20.67473984 5.60242224 0
v 9.16259956 4.9328599 0
v 20.39756775 5.25131702 0
v 9.49249172 4.62577629 0
v 20.09399986 4.92187977 0
v 9.84496689 4.34539604 0
v 19.76556015 4.61655045 0
v 10.22002506 4.0917182 0
v 19.41377258 4.33777094 0
v 10.61766624 3.86474323 0
v 19.03863716 4.08554173 0
v 11.03789139 3.66447139 0
v 18.64015579 3.85986328 0
v 11.48069954 3.49090242 0
v 18.21832657 3.66073513 0
v 11.94609165 3.34403634 0
v 17.77314949 3.48815751 0
v 12.43406677 3.22387338 0
v 17.30462646 3.34213018 0
v 12.9446249 3.13041306 0
v 16.81275558 3.22265339 0
v 13.47776699 3.06365585 0
v 14.03349209 3.02360153 0
v 16.29753685 3.12972689 0
v 14.61180019 3.01025009 0
v 15.75897217 3.06335092 0
v 15.19705963 3.02352524 0
v 26.23539925 10.23929977 7
v 26.23539925 31.99220085 7
v 21.9946003 31.99220085 7
v 7.2509799 10.3270998 7
v 7.2509799 31.99220085 7
v 3.07616997 31.99220085 7
v 3.07616997 10.1953001 7
v 3.10485721 9.38246632 7
v 3.17626882 8.59923363 7
v 3.29040504 7.84560394 7
v 3.44726562 7.12157536 7
v 3.64685059 6.4271493 7
v 3.88915992 5.76232481 7
v 4.17419386 5.12710285 7
v 4.50195217 4.52148199 7
v 4.87243509 3.94546366 7
v 5.28564215 3.39904714 7
v 5.74157381 2.88223267 7
v 6.24023008 2.39502001 7
v 6.77505112 1.94229162 7
v 7.33947372 1.52893102 7
v 7.93349791 1.1549381 7
v 8.55712414 0.8203128 7
v 9.2103529 0.52505517 7
v 9.89318275 0.26916525 7
v 10.60561466 0.05264301 7
v 11.34764767 -0.12451155 7
v 12.11928272 -0.26229843 7
v 12.92051983 -0.36071762 7
v 13.75135899 -0.41976917 7
v 14.61180019 -0.43945301 7
v 15.73239994 -0.39550799 7
v 16.52410507 -0.31936663 7
v 17.28788567 -0.20813008 7
v 18.02374458 -0.06179836 7
v 18.73167801 0.11962853 7
v 19.41168785 0.33615062 7
v 20.06377411 0.58776784 7
v 20.68793869 0.87448025 7
v 21.28417778 1.19628787 7
v 21.85249329 1.55319059 7
v 22.39288521 1.94518864 7
v 22.90535545 2.37228179 7
v 23.38990021 2.83447003 7
v 23.84102821 3.32565093 7
v 24.25324631 3.83972073 7
v 24.6265564 4.37667942 7
v 24.96095467 4.93652678 7
v 25.25644493 5.51926279 7
v 25.51302528 6.12488747 7
v 25.73069572 6.75340128 7
v 25.90945625 7.40480328 7
v 26.04930687 8.07909393 7
v 26.15024757 8.77627373 7
v 26.21227837 9.49634266 7
v 21.9946003 10.30519962 7
v 7.26425505 9.75925255 7
v 7.30408049 9.21291828 7
v 21.98140144 9.73741722 7
v 7.37045622 8.68809891 7
v 21.94180489 9.1913023 7
v 21.87581253 8.66685486 7
v 7.46338224 8.18479347 7
v 21.78342247 8.16407585 7
v 7.58285856 7.70300198 7
v 7.72888517 7.2427249 7
v 21.6646347 7.68296385 7
v 7.9014616 6.80396223 7
v 21.51944923 7.2235198 7
v 8.1005888 6.3867135 7
v 21.34786797 6.78574371 7
v 8.32626629 5.99097872 7
v 21.14988899 6.36963558 7
v 8.57849407 5.61675835 7
v 20.92551231 5.97519493 7
v 8.85727215 5.26405191 7
v 20.67473984 5.60242224 7
v 9.16259956 4.9328599 7
v 20.39756775 5.25131702 7
v 9.49249172 4.62577629 7
v 20.09399986 4.92187977 7
v 9.84496689 4.34539604 7
v 19.76556015 4.61655045 7
v 10.22002506 4.0917182 7
v 19.41377258 4.33777094 7
v 10.61766624 3.86474323 7
v 19.03863716 4.08554173 7
v 11.03789139 3.66447139 7
v 18.64015579 3.85986328 7
v 11.48069954 3.49090242 7
v 18.21832657 3.66073513 7
v 11.94609165 3.34403634 7
v 17.77314949 3.48815751 7
v 12.43406677 3.22387338 7
v 17.30462646 3.34213018 7
v 12.9446249 3.13041306 7
v 16.81275558 3.22265339 7
v 13.47776699 3.06365585 7
v 14.03349209 3.02360153 7
v 16.29753685 3.12972689 7
v 14.61180019 3.01025009 7
v 15.75897217 3.06335092 7
v 15.19705963 3.02352524 7
vn -0 -0 -1
vn 0 0 1
vn -1 0 0
vn -0.99973 0.02324 0
vn -0.99738 0.07232 0
vn -0.99218 0.12485 0
vn -0.98353 0.18073 0
vn -0.97085 0.2397 0
vn -0.95352 0.30132 0
vn -0.93104 0.36491 0
vn -0.903 0.42964 0
vn -0.86921 0.49445 0
vn -0.82972 0.55817 0
vn -0.7849 0.61962 0
vn -0.73539 0.67764 0
vn -0.68087 0.7324 0
vn -0.62109 0.78374 0
vn -0.55797 0.82986 0
vn -0.4928 0.87014 0
vn -0.42689 0.90431 0
vn -0.36145 0.93239 0
vn -0.29756 0.9547 0
vn -0.23604 0.97174 0
vn -0.1775 0.98412 0
vn -0.12232 0.99249 0
vn -0.0707 0.9975 0
vn -0.02268 0.99974 0
vn 0.02308 0.99973 0
vn 0.07189 0.99741 0
vn 0.12424 0.99225 0
vn 0.18006 0.98366 0
vn 0.23911 0.97099 0
vn 0.30095 0.95364 0
vn 0.36494 0.93103 0
vn 0.43022 0.90272 0
vn 0.49573 0.86848 0
vn 0.56025 0.82832 0
vn 0.62253 0.7826 0
vn 0.68135 0.73196 0
vn 0.73523 0.67781 0
vn 0.78453 0.62009 0
vn 0.82923 0.55891 0
vn 0.86867 0.49538 0
vn 0.90249 0.4307 0
vn 0.9306 0.36603 0
vn 0.95318 0.3024 0
vn 0.9706 0.24069 0
vn 0.98338 0.18156 0
vn 0.9921 0.12547 0
vn 0.99735 0.0727 0
vn 0.99973 0.02337 0
vn 1 0 0
vn 0 1 0
vn -0.99938 -0.03527 0
vn -0.99587 -0.0908 0
vn -0.98873 -0.14974 0
vn -0.97733 -0.21174 0
vn -0.96109 -0.27623 0
vn -0.93954 -0.34244 0
vn -0.91236 -0.40939 0
vn -0.87947 -0.47596 0
vn -0.84106 -0.54095 0
vn -0.79762 -0.60317 0
vn -0.7499 -0.66156 0
vn -0.69885 -0.71527 0
vn -0.6461 -0.76325 0
vn -0.59085 -0.80678 0
vn -0.53279 -0.84625 0
vn -0.47281 -0.88116 0
vn -0.41188 -0.91124 0
vn -0.35092 -0.93641 0
vn -0.29079 -0.95679 0
vn -0.23222 -0.97266 0
vn -0.17578 -0.98443 0
vn -0.12192 -0.99254 0
vn -0.0709 -0.99748 0
vn -0.02287 -0.99974 0
vn 0.03919 -0.99923 0
vn 0.09573 -0.99541 0
vn 0.14412 -0.98956 0
vn 0.19504 -0.9808 0
vn 0.24825 -0.96869 0
vn 0.3034 -0.95286 0
vn 0.35999 -0.93295 0
vn 0.41742 -0.90871 0
vn 0.47496 -0.88001 0
vn 0.53183 -0.84685 0
vn 0.58718 -0.80946 0
vn 0.64022 -0.7682 0
vn 0.69022 -0.7236 0
vn 0.7365 -0.67644 0
vn 0.78016 -0.62559 0
vn 0.82107 -0.57083 0
vn 0.85851 -0.51279 0
vn 0.89189 -0.45225 0
vn 0.92077 -0.3901 0
vn 0.94494 -0.32726 0
vn 0.96435 -0.26464 0
vn 0.97916 -0.20308 0
vn 0.98968 -0.14329 0
vn 0.99631 -0.08583 0
vn 0.99952 -0.03111 0
f 1//1 2//1 3//1
f 4//1 5//1 6//1
f 7//1 8//1 4//1
f 9//1 10//1 7//1
f 11//1 12//1 9//1
f 13//1 14//1 11//1
f 15//1 16//1 13//1
f 17//1 18//1 15//1
f 19//1 20//1 17//1
f 21//1 22//1 19//1
f 23//1 24//1 21//1
f 25//1 26//1 23//1
f 27//1 28//1 25//1
f 29//1 30//1 27//1
f 31//1 32//1 29//1
f 33//1 34//1 31//1
f 35//1 36//1 33//1
f 37//1 38//1 35//1
f 39//1 40//1 37//1
f 41//1 42//1 39//1
f 43//1 44//1 41//1
f 45//1 46//1 43//1
f 47//1 48//1 45//1
f 49//1 50//1 47//1
f 51//1 52//1 49//1
f 53//1 54//1 51//1
f 3//1 55//1 53//1
f 56//1 1//1 3//1
f 4//1 6//1 57//1
f 9//1 7//1 4//1
f 13//1 11//1 9//1
f 17//1 15//1 13//1
f 21//1 19//1 17//1
f 25//1 23//1 21//1
f 29//1 27//1 25//1
f 33//1 31//1 29//1
f 37//1 35//1 33//1
f 41//1 39//1 37//1
f 45//1 43//1 41//1
f 49//1 47//1 45//1
f 53//1 51//1 49//1
f 56//1 3//1 53//1
f 4//1 57//1 58//1
f 13//1 9//1 4//1
f 21//1 17//1 13//1
f 29//1 25//1 21//1
f 37//1 33//1 29//1
f 45//1 41//1 37//1
f 53//1 49//1 45//1
f 59//1 56//1 53//1
f 4//1 58//1 60//1
f 21//1 13//1 4//1
f 37//1 29//1 21//1
f 53//1 45//1 37//1
f 61//1 59//1 53//1
f 21//1 4//1 60//1
f 62//1 61//1 53//1
f 21//1 60//1 63//1
f 64//1 62//1 53//1
f 21//1 63//1 65//1
f 64//1 53//1 37//1
f 21//1 65//1 66//1
f 67//1 64//1 37//1
f 21//1 66//1 68//1
f 69//1 67//1 37//1
f 21//1 68//1 70//1
f 71//1 69//1 37//1
f 21//1 70//1 72//1
f 73//1 71//1 37//1
f 21//1 72//1 74//1
f 75//1 73//1 37//1
f 21//1 74//1 76//1
f 77//1 75//1 37//1
f 21//1 76//1 78//1
f 79//1 77//1 37//1
f 21//1 78//1 80//1
f 81//1 79//1 37//1
f 21//1 80//1 82//1
f 83//1 81//1 37//1
f 21//1 82//1 84//1
f 85//1 83//1 37//1
f 21//1 84//1 86//1
f 87//1 85//1 37//1
f 21//1 86//1 88//1
f 89//1 87//1 37//1
f 21//1 88//1 90//1
f 91//1 89//1 37//1
f 21//1 90//1 92//1
f 93//1 91//1 37//1
f 21//1 92//1 94//1
f 95//1 93//1 37//1
f 21//1 94//1 96//1
f 97//1 95//1 37//1
f 21//1 96//1 98//1
f 97//1 37//1 21//1
f 21//1 98//1 99//1
f 100//1 97//1 21//1
f 21//1 99//1 101//1
f 102//1 100//1 21//1
f 21//1 101//1 103//1
f 103//1 102//1 21//1
f 104//2 105//2 106//2
f 107//2 108//2 109//2
f 109//2 110//2 111//2
f 111//2 112//2 113//2
f 113//2 114//2 115//2
f 115//2 116//2 117//2
f 117//2 118//2 119//2
f 119//2 120//2 121//2
f 121//2 122//2 123//2
f 123//2 124//2 125//2
f 125//2 126//2 127//2
f 127//2 128//2 129//2
f 129//2 130//2 131//2
f 131//2 132//2 133//2
f 133//2 134//2 135//2
f 135//2 136//2 137//2
f 137//2 138//2 139//2
f 139//2 140//2 141//2
f 141//2 142//2 143//2
f 143//2 144//2 145//2
f 145//2 146//2 147//2
f 147//2 148//2 149//2
f 149//2 150//2 151//2
f 151//2 152//2 153//2
f 153//2 154//2 155//2
f 155//2 156//2 157//2
f 157//2 158//2 104//2
f 104//2 106//2 159//2
f 160//2 107//2 109//2
f 109//2 111//2 113//2
f 113//2 115//2 117//2
f 117//2 119//2 121//2
f 121//2 123//2 125//2
f 125//2 127//2 129//2
f 129//2 131//2 133//2
f 133//2 135//2 137//2
f 137//2 139//2 141//2
f 141//2 143//2 145//2
f 145//2 147//2 149//2
f 149//2 151//2 153//2
f 153//2 155//2 157//2
f 157//2 104//2 159//2
f 161//2 160//2 109//2
f 109//2 113//2 117//2
f 117//2 121//2 125//2
f 125//2 129//2 133//2
f 133//2 137//2 141//2
f 141//2 145//2 149//2
f 149//2 153//2 157//2
f 157//2 159//2 162//2
f 163//2 161//2 109//2
f 109//2 117//2 125//2
f 125//2 133//2 141//2
f 141//2 149//2 157//2
f 157//2 162//2 164//2
f 163//2 109//2 125//2
f 157//2 164//2 165//2
f 166//2 163//2 125//2
f 157//2 165//2 167//2
f 168//2 166//2 125//2
f 141//2 157//2 167//2
f 169//2 168//2 125//2
f 141//2 167//2 170//2
f 171//2 169//2 125//2
f 141//2 170//2 172//2
f 173//2 171//2 125//2
f 141//2 172//2 174//2
f 175//2 173//2 125//2
f 141//2 174//2 176//2
f 177//2 175//2 125//2
f 141//2 176//2 178//2
f 179//2 177//2 125//2
f 141//2 178//2 180//2
f 181//2 179//2 125//2
f 141//2 180//2 182//2
f 183//2 181//2 125//2
f 141//2 182//2 184//2
f 185//2 183//2 125//2
f 141//2 184//2 186//2
f 187//2 185//2 125//2
f 141//2 186//2 188//2
f 189//2 187//2 125//2
f 141//2 188//2 190//2
f 191//2 189//2 125//2
f 141//2 190//2 192//2
f 193//2 191//2 125//2
f 141//2 192//2 194//2
f 195//2 193//2 125//2
f 141//2 194//2 196//2
f 197//2 195//2 125//2
f 141//2 196//2 198//2
f 199//2 197//2 125//2
f 141//2 198//2 200//2
f 201//2 199//2 125//2
f 125//2 141//2 200//2
f 202//2 201//2 125//2
f 125//2 200//2 203//2
f 204//2 202//2 125//2
f 125//2 203//2 205//2
f 206//2 204//2 125//2
f 125//2 205//2 206//2
f 1//3 56//3 106//3
f 56//3 159//3 106//3
f 56//4 59//4 159//4
f 59//4 162//4 159//4
f 59//5 61//5 162//5
f 61//5 164//5 162//5
f 61//6 62//6 164//6
f 62//6 165//6 164//6
f 62//7 64//7 165//7
f 64//7 167//7 165//7
f 64//8 67//8 167//8
f 67//8 170//8 167//8
f 67//9 69//9 170//9
f 69//9 172//9 170//9
f 69//10 71//10 172//10
f 71//10 174//10 172//10
f 71//11 73//11 174//11
f 73//11 176//11 174//11
f 73//12 75//12 176//12
f 75//12 178//12 176//12
f 75//13 77//13 178//13
f 77//13 180//13 178//13
f 77//14 79//14 180//14
f 79//14 182//14 180//14
f 79//15 81//15 182//15
f 81//15 184//15 182//15
f 81//16 83//16 184//16
f 83//16 186//16 184//16
f 83//17 85//17 186//17
f 85//17 188//17 186//17
f 85//18 87//18 188//18
f 87//18 190//18 188//18
f 87//19 89//19 190//19
f 89//19 192//19 190//19
f 89//20 91//20 192//20
f 91//20 194//20 192//20
f 91//21 93//21 194//21
f 93//21 196//21 194//21
f 93//22 95//22 196//22
f 95//22 198//22 196//22
f 95//23 97//23 198//23
f 97//23 200//23 198//23
f 97//24 100//24 200//24
f 100//24 203//24 200//24
f 100//25 102//25 203//25
f 102//25 205//25 203//25
f 102//26 103//26 205//26
f 103//26 206//26 205//26
f 103//27 101//27 206//27
f 101//27 204//27 206//27
f 101//28 99//28 204//28
f 99//28 202//28 204//28
f 99//29 98//29 202//29
f 98//29 201//29 202//29
f 98//30 96//30 201//30
f 96//30 199//30 201//30
f 96//31 94//31 199//31
f 94//31 197//31 199//31
f 94//32 92//32 197//32
f 92//32 195//32 197//32
f 92//33 90//33 195//33
f 90//33 193//33 195//33
f 90//34 88//34 193//34
f 88//34 191//34 193//34
f 88//35 86//35 191//35
f 86//35 189//35 191//35
f 86//36 84//36 189//36
f 84//36 187//36 189//36
f 84//37 82//37 187//37
f 82//37 185//37 187//37
f 82//38 80//38 185//38
f 80//38 183//38 185//38
f 80//39 78//39 183//39
f 78//39 181//39 183//39
f 78//40 76//40 181//40
f 76//40 179//40 181//40
f 76//41 74//41 179//41
f 74//41 177//41 179//41
f 74//42 72//42 177//42
f 72//42 175//42 177//42
f 72//43 70//43 175//43
f 70//43 173//43 175//43
f 70//44 68//44 173//44
f 68//44 171//44 173//44
f 68//45 66//45 171//45
f 66//45 169//45 171//45
f 66//46 65//46 169//46
f 65//46 168//46 169//46
f 65//47 63//47 168//47
f 63//47 166//47 168//47
f 63//48 60//48 166//48
f 60//48 163//48 166//48
f 60//49 58//49 163//49
f 58//49 161//49 163//49
f 58//50 57//50 161//50
f 57//50 160//50 161//50
f 57//51 6//51 160//51
f 6//51 107//51 160//51
f 6//52 5//52 107//52
f 5//52 108//52 107//52
f 5//53 4//53 108//53
f 4//53 109//53 108//53
f 4//3 8//3 109//3
f 8//3 110//3 109//3
f 8//54 7//54 110//54
f 7//54 111//54 110//54
f 7//55 10//55 111//55
f 10//55 112//55 111//55
f 10//56 9//56 112//56
f 9//56 113//56 112//56
f 9//57 12//57 113//57
f 12//57 114//57 113//57
f 12//58 11//58 114//58
f 11//58 115//58 114//58
f 11//59 14//59 115//59
f 14//59 116//59 115//59
f 14//60 13//60 116//60
f 13//60 117//60 116//60
f 13//61 16//61 117//61
f 16//61 118//61 117//61
f 16//62 15//62 118//62
f 15//62 119//62 118//62
f 15//63 18//63 119//63
f 18//63 120//63 119//63
f 18//64 17//64 120//64
f 17//64 121//64 120//64
f 17//65 20//65 121//65
f 20//65 122//65 121//65
f 20//66 19//66 122//66
f 19//66 123//66 122//66
f 19//67 22//67 123//67
f 22//67 124//67 123//67
f 22//68 21//68 124//68
f 21//68 125//68 124//68
f 21//69 24//69 125//69
f 24//69 126//69 125//69
f 24//70 23//70 126//70
f 23//70 127//70 126//70
f 23//71 26//71 127//71
f 26//71 128//71 127//71
f 26//72 25//72 128//72
f 25//72 129//72 128//72
f 25//73 28//73 129//73
f 28//73 130//73 129//73
f 28//74 27//74 130//74
f 27//74 131//74 130//74
f 27//75 30//75 131//75
f 30//75 132//75 131//75
f 30//76 29//76 132//76
f 29//76 133//76 132//76
f 29//77 32//77 133//77
f 32//77 134//77 133//77
f 32//78 31//78 134//78
f 31//78 135//78 134//78
f 31//79 34//79 135//79
f 34//79 136//79 135//79
f 34//80 33//80 136//80
f 33//80 137//80 136//80
f 33//81 36//81 137//81
f 36//81 138//81 137//81
f 36//82 35//82 138//82
f 35//82 139//82 138//82
f 35//83 38//83 139//83
f 38//83 140//83 139//83
f 38//84 37//84 140//84
f 37//84 141//84 140//84
f 37//85 40//85 141//85
f 40//85 142//85 141//85
f 40//86 39//86 142//86
f 39//86 143//86 142//86
f 39//87 42//87 143//87
f 42//87 144//87 143//87
f 42//88 41//88 144//88
f 41//88 145//88 144//88
f 41//89 44//89 145//89
f 44//89 146//89 145//89
f 44//90 43//90 146//90
f 43//90 147//90 146//90
f 43//91 46//91 147//91
f 46//91 148//91 147//91
f 46//92 45//92 148//92
f 45//92 149//92 148//92
f 45//93 48//93 149//93
f 48//93 150//93 149//93
f 48//94 47//94 150//94
f 47//94 151//94 150//94
f 47//95 50//95 151//95
f 50//95 152//95 151//95
f 50//96 49//96 152//96
f 49//96 153//96 152//96
f 49//97 52//97 153//97
f 52//97 154//97 153//97
f 52//98 51//98 154//98
f 51//98 155//98 154//98
f 51//99 54//99 155//99
f 54//99 156//99 155//99
f 54//100 53//100 156//100
f 53//100 157//100 156//100
f 53//101 55//101 157//101
f 55//101 158//101 157//101
f 55//102 3//102 158//102
f 3//102 104//102 158//102
f 3//52 2//52 104//52
f 2//52 105//52 104//52
f 2//53 1//53 105//53
f 1//53 106//53 105//53
# Vertices: 206, normals: 102, texture coordinates: 0, faces: 408

